<?xml version="1.0" encoding="utf-8"?>
<!-- Generator: Adobe Illustrator 17.1.0, SVG Export Plug-In . SVG Version: 6.00 Build 0)  -->
<!DOCTYPE svg PUBLIC "-//W3C//DTD SVG 1.1//EN" "http://www.w3.org/Graphics/SVG/1.1/DTD/svg11.dtd">
<svg version="1.1" id="Layer_1" xmlns="http://www.w3.org/2000/svg" xmlns:xlink="http://www.w3.org/1999/xlink" x="0px" y="0px"
	 viewBox="0 0 210 60" enable-background="new 0 0 210 60" xml:space="preserve">
<g>
	<g>
		<path fill="#FFFFFF" d="M67,38.1c0,0,3.1,3.1,7.4,3.1c2.7,0,5-1.5,5-4.3c0-6.3-14-4.9-14-13.8c0-4.5,3.9-8.1,9.3-8.1
			c5.4,0,8.2,2.9,8.2,2.9l-1.8,3.4c0,0-2.7-2.5-6.4-2.5c-3.1,0-5.2,1.9-5.2,4.2c0,6,14,4.4,14,13.8c0,4.5-3.4,8.2-9.2,8.2
			c-6.1,0-9.6-3.8-9.6-3.8L67,38.1z"/>
		<path fill="#FFFFFF" d="M95.9,19.1H86v-3.5h23.9v3.5H100v25.4h-4.1V19.1z"/>
		<path fill="#FFFFFF" d="M113.8,15.5h8.9c3,0,4.3,0.2,5.4,0.7c3,1.1,4.9,4,4.9,7.8c0,3.7-2,6.8-5.2,7.8v0.1c0,0,0.3,0.4,0.9,1.3
			l6.1,11.2h-4.6L124,33h-6.2v11.5h-4.1V15.5z M123.6,29.4c3.2,0,5.1-2,5.1-5.2c0-2.1-0.8-3.6-2.3-4.5c-0.8-0.4-1.7-0.7-4-0.7h-4.7
			v10.4H123.6z"/>
		<path fill="#FFFFFF" d="M138.9,15.5h4.1v18.7c0,4.4,2.9,7,7.3,7c4.5,0,7.4-2.6,7.4-7.1V15.5h4.1v18.7c0,6.4-4.6,10.7-11.4,10.7
			c-6.8,0-11.4-4.3-11.4-10.7V15.5z"/>
		<path fill="#FFFFFF" d="M175.2,19.1h-9.9v-3.5h23.9v3.5h-9.9v25.4h-4.1V19.1z"/>
		<path fill="#FFFFFF" d="M193.5,38.1c0,0,3.1,3.1,7.4,3.1c2.7,0,5-1.5,5-4.3c0-6.3-14-4.9-14-13.8c0-4.5,3.9-8.1,9.3-8.1
			c5.4,0,8.2,2.9,8.2,2.9l-1.8,3.4c0,0-2.7-2.5-6.4-2.5c-3.1,0-5.2,1.9-5.2,4.2c0,6,14,4.4,14,13.8c0,4.5-3.4,8.2-9.2,8.2
			c-6.1,0-9.6-3.8-9.6-3.8L193.5,38.1z"/>
	</g>
	<g>
		<polygon fill="#202A5A" points="49.9,15.3 27,2 2,16 2,44 27,58 51,44 51,16 51,14.8 		"/>
		<polygon fill="#2C448A" points="2,16 27,30 51,16 27,2 		"/>
		<polygon fill="#283A79" points="51,14.8 43,19 42.9,20.8 27,30 27,58 51,44 		"/>
		<polygon fill="#202A5A" points="2,16 2,44 27,58 27,30 		"/>
		<polygon fill="#3558A7" points="0,44 0,35 27,51 27,60 		"/>
		<polygon fill="#3558A7" points="0,16 0,21 27,37 27,32 		"/>
		<polygon fill="#416FB5" points="53,44 53,39 31.1,29.5 27,32 27,36.9 40.3,42.8 27,51 27,60 		"/>
		<polygon fill="#477FC1" points="40.3,42.8 38.7,42.2 27,49 2,35 2,33.8 0,35 27,51 		"/>
		<polygon fill="#477FC1" points="11.8,18 27,9 43,19 51,14.8 27,0 0,16 27,32 31.1,29.5 		"/>
		<polygon fill="#202A5A" points="42.9,20.8 43,19 27,9 11.8,18 13.5,19 27,11 		"/>
	</g>
</g>
</svg>
